<?xml version="1.0" encoding="utf-8"?>
<!-- Generator: Adobe Illustrator 22.1.0, SVG Export Plug-In . SVG Version: 6.00 Build 0)  -->
<svg version="1.1" id="Layer_1" xmlns="http://www.w3.org/2000/svg" xmlns:xlink="http://www.w3.org/1999/xlink" x="0px" y="0px"
	 viewBox="0 0 1920 1080" style="enable-background:new 0 0 1920 1080;" xml:space="preserve">
<style type="text/css">
	.st0{fill:#95D1EF;}
	.st1{fill:#5EC6EF;}
	.st2{fill:#5AB8F2;}
	.st3{fill:#D4EEF9;}
	.st4{fill:#1895C6;}
	.st5{fill:#0276A3;}
	.st6{fill:#6CA9C1;}
	.st7{fill:#2899BC;}
	.st8{fill:#4993AA;}
</style>
<polyline class="st0" points="1,283.3 164.6,283.3 246.4,141.7 164.6,0 1,0 "/>
<polyline class="st1" points="165.3,0.1 246.9,141.5 410.1,141.5 491.7,0.1 "/>
<polygon class="st2" points="410.1,142 246.9,142 165.3,283.3 246.9,424.7 410.1,424.7 491.7,283.3 "/>
<polygon class="st0" points="654,0.6 490.8,0.6 409.2,142 490.8,283.3 654,283.3 735.6,142 "/>
<polyline class="st3" points="1.5,566 164.7,566 246.4,424.7 164.7,283.3 1.5,283.3 "/>
<polygon class="st4" points="654,283.3 490.8,283.3 409.2,424.7 490.8,566 654,566 735.6,424.7 "/>
<polygon class="st5" points="895.9,142 732.7,142 651,283.3 732.7,424.7 895.9,424.7 977.5,283.3 "/>
<polyline class="st6" points="651,0.6 732.7,142 895.9,142 977.5,0.6 "/>
<polygon class="st7" points="1138.9,1 975.7,1 894,142.3 975.7,283.7 1138.9,283.7 1220.5,142.3 "/>
<polygon class="st8" points="409.9,425 246.7,425 165,566.3 246.7,707.7 409.9,707.7 491.5,566.3 "/>
<polyline class="st2" points="1.6,849 165,849 246.7,707.5 165,566 1.6,566 "/>
<polyline class="st0" points="195,1080 1,1080 1,849 164.6,849 246.4,990.7 194.8,1080 "/>
<polygon class="st1" points="410.1,708 246.9,708 165.3,849.3 246.9,990.7 410.1,990.7 491.7,849.3 "/>
<polyline class="st2" points="461.5,1080 410.1,991 246.9,991 195.4,1080.2 "/>
<polygon class="st0" points="654,566.6 490.8,566.6 409.2,708 490.8,849.3 654,849.3 735.6,708 "/>
<polyline class="st4" points="683.9,1080.2 735.6,990.7 654,849.3 490.8,849.3 409.2,990.7 460.9,1080.3 "/>
<polygon class="st6" points="895.9,425 732.7,425 651,566.3 732.7,707.7 895.9,707.7 977.5,566.3 "/>
<polygon class="st2" points="896.1,708 732.9,708 651.3,849.3 732.9,990.7 896.1,990.7 977.7,849.3 "/>
<polyline class="st3" points="947.5,1080 896.1,991 732.9,991 681.4,1080.3 "/>
<polygon class="st1" points="1138.9,284 975.7,284 894,425.3 975.7,566.7 1138.9,566.7 1220.5,425.3 "/>
<polygon class="st8" points="1138.9,567 975.7,567 894,708.3 975.7,849.7 1138.9,849.7 1220.5,708.3 "/>
<polyline class="st4" points="1168.6,1080.2 1220.5,990.3 1138.9,849 975.7,849 894,990.3 946.3,1080.8 "/>
<polygon class="st0" points="1382,141.6 1218.8,141.6 1137.2,283 1218.8,424.3 1382,424.3 1463.6,283 "/>
<polyline class="st1" points="1137.3,0.7 1218.9,142 1382.1,142 1463.7,0.7 "/>
<polygon class="st4" points="1382,424.3 1218.8,424.3 1137.2,565.7 1218.8,707 1382,707 1463.6,565.7 "/>
<polygon class="st1" points="1382.1,707 1218.9,707 1137.3,848.3 1218.9,989.7 1382.1,989.7 1463.7,848.3 "/>
<polyline class="st2" points="1433.5,1079 1382.1,990 1218.9,990 1167.4,1079.3 "/>
<polygon class="st7" points="1623.9,0 1460.7,0 1379,141.3 1460.7,282.7 1623.9,282.7 1705.5,141.3 "/>
<polygon class="st1" points="1623.9,283 1460.7,283 1379,424.3 1460.7,565.7 1623.9,565.7 1705.5,424.3 "/>
<polygon class="st5" points="1623.9,566 1460.7,566 1379,707.3 1460.7,848.7 1623.9,848.7 1705.5,707.3 "/>
<polyline class="st3" points="1653.6,1079.2 1705.5,989.3 1623.9,848 1460.7,848 1379,989.3 1431.3,1079.8 "/>
<polyline class="st0" points="1920.5,232.6 1868,141.6 1704.8,141.6 1623.2,283 1704.8,424.3 1868,424.3 1920.5,333.3 "/>
<polyline class="st5" points="1920.7,50.9 1868.1,142 1704.9,142 1623.3,0.7 1920.5,0.7 "/>
<polyline class="st6" points="1920.5,515.3 1868,424.3 1704.8,424.3 1623.2,565.7 1704.8,707 1868,707 1920.3,616.3 "/>
<polyline class="st1" points="1919.5,796 1868.1,707 1704.9,707 1623.3,848.3 1704.9,989.7 1868.1,989.7 1919.5,900.6 "/>
<polyline class="st0" points="1919.5,1079 1868.1,990 1704.9,990 1653.4,1079.3 "/>
<polyline class="st7" points="1920.4,50.7 1868,141.3 1920.7,232.5 "/>
<polyline class="st1" points="1920.6,333.3 1868,424.3 1920.6,515.3 "/>
<polyline class="st8" points="1920.5,616.4 1868,707.3 1919.6,796.5 "/>
<polyline class="st5" points="1922.5,895 1868,989.3 1922.5,1083.7 "/>
</svg>
